PathFileType	4	(X/Y/Z)	./resultDataOpenSim/trcMotMarkerGrf/sub10/qtm-02-07.trc
DataRate	CameraRate	NumFrames	NumMarkers	Units	OrigDataRate	OrigDataStartFrame	OrigNumFrames
250.000000	250.000000	13	24	m	250.000000	65	514
Frame#	Time	L.Toe.Tip			R.Toe.Tip			L.Ankle.Lat			R.Ankle.Lat			L.Ankle.Med			R.Ankle.Med			L.Heel			R.Heel			L.Knee.Lat			R.Knee.Lat			L.Knee.Med			R.Knee.Med			L.Thigh.Upper			R.Thigh.Upper			L.ASIS			R.ASIS			V.Sacral			L.Acromium			R.Acromium			C7			L.Elbow			R.Elbow			L.Wrist.Lat			R.Wrist.Lat
		X1	Y1	Z1	X2	Y2	Z2	X3	Y3	Z3	X4	Y4	Z4	X5	Y5	Z5	X6	Y6	Z6	X7	Y7	Z7	X8	Y8	Z8	X9	Y9	Z9	X10	Y10	Z10	X11	Y11	Z11	X12	Y12	Z12	X13	Y13	Z13	X14	Y14	Z14	X15	Y15	Z15	X16	Y16	Z16	X17	Y17	Z17	X18	Y18	Z18	X19	Y19	Z19	X20	Y20	Z20	X21	Y21	Z21	X22	Y22	Z22	X23	Y23	Z23	X24	Y24	Z24

65	0.256	-1.3477058	0.073008466	-0.14076365	-0.74134606	0.039537011	0.033378794	-1.3313486	0.20844237	-0.18110118	-0.88102953	0.05312858	0.069483964	-1.3080124	0.20322042	-0.10036267	-0.86538156	0.079986632	-0.013501755	-1.3705449	0.26117154	-0.13567392	-0.93302158	0.028404801	0.022044798	-1.0173978	0.4161517	-0.19014943	-0.86164114	0.45350908	0.10141278	-1.003277	0.382718	-0.072642905	-0.8596302	0.45928792	-0.027076445	-0.98181404	0.79612386	-0.22559923	-0.95007337	0.86163141	0.15307824	-0.92019528	0.91129027	-0.17145211	-0.8894257	0.94294916	0.066641298	-1.1041178	0.94377351	-0.030651599	-0.9559475	1.407518	-0.18298945	-0.99680229	1.3880046	0.13632953	-1.0603051	1.4266331	-0.034468003	-1.0320789	1.0723092	-0.25789672	-1.1213136	1.0650839	0.17061501	-0.87823205	0.88416413	-0.21445007	-1.0580056	0.85380582	0.27863478
66	0.26	-1.3358143	0.074834626	-0.13988284	-0.74130928	0.039514151	0.033376322	-1.3208955	0.21031285	-0.17998423	-0.8810725	0.053096248	0.069554394	-1.2975568	0.20522909	-0.099266371	-0.86529005	0.08003831	-0.013440536	-1.3606272	0.26285564	-0.13461761	-0.93304534	0.028417638	0.022068363	-1.0064678	0.41697981	-0.18958061	-0.86006926	0.45344813	0.1018921	-0.99322872	0.383847	-0.071526421	-0.85778651	0.45940756	-0.026649225	-0.97629895	0.79716994	-0.22518352	-0.94629823	0.86217537	0.15333399	-0.91473264	0.91259074	-0.17106195	-0.88623512	0.94370888	0.067632661	-1.0993632	0.94472145	-0.030803423	-0.95099172	1.4085644	-0.182535	-0.99128643	1.3890581	0.13680795	-1.0551983	1.4277407	-0.033814463	-1.027886	1.0737247	-0.25751645	-1.1157568	1.0658534	0.17096861	-0.87553168	0.88415322	-0.21527793	-1.0506756	0.85462468	0.27908623
67	0.264	-1.3233666	0.076422238	-0.13898206	-0.74126643	0.039494381	0.033373355	-1.3102929	0.21197963	-0.17882619	-0.8810954	0.053070124	0.069628528	-1.286892	0.20715792	-0.098162177	-0.86519741	0.080085596	-0.013386364	-1.3507989	0.26423048	-0.1335671	-0.93305954	0.028436769	0.022083659	-0.99545823	0.41798298	-0.18899809	-0.85850849	0.45340293	0.10237269	-0.98317839	0.38495236	-0.070373476	-0.85576268	0.45953577	-0.026215598	-0.97085226	0.79823923	-0.22480239	-0.94262952	0.8626793	0.15354344	-0.90925724	0.91391841	-0.17072369	-0.88262546	0.94447396	0.068557814	-1.0949474	0.94566715	-0.031536759	-0.94607778	1.4096119	-0.18208515	-0.98573692	1.3901596	0.13726705	-1.0501219	1.4288382	-0.033173704	-1.0237747	1.0751365	-0.25724579	-1.1097734	1.0665208	0.17225328	-0.87286394	0.88418784	-0.21613119	-1.0432374	0.85544376	0.2794955
68	0.268	-1.3104374	0.077809208	-0.13806934	-0.74122462	0.039479177	0.033372872	-1.2995538	0.21346162	-0.17763879	-0.88111068	0.053053046	0.069703595	-1.2759706	0.20897886	-0.097057333	-0.86511581	0.080130274	-0.013338582	-1.3410605	0.26526998	-0.13247602	-0.93307218	0.028460729	0.022092472	-0.98443609	0.4191375	-0.18838746	-0.85695471	0.45337345	0.1028508	-0.97289843	0.3861424	-0.069328185	-0.85372671	0.45964219	-0.025782125	-0.96540544	0.79932822	-0.22436354	-0.93912172	0.86314896	0.153668	-0.90402189	0.91523104	-0.17052412	-0.8784218	0.94523112	0.069387503	-1.0908653	0.94660056	-0.032827748	-0.94120914	1.410662	-0.18164106	-0.98021159	1.3912861	0.13772679	-1.0450771	1.4299257	-0.032543624	-1.0197246	1.0765369	-0.2570411	-1.1034425	1.0671406	0.17434908	-0.87023542	0.88426423	-0.21701134	-1.0356666	0.85626522	0.27985976
69	0.272	-1.2970999	0.079017536	-0.13713119	-0.74119377	0.039469127	0.033376312	-1.2887121	0.21477644	-0.17642611	-0.88112772	0.053043572	0.069768854	-1.2648854	0.21065121	-0.095924614	-0.86505282	0.080175866	-0.013294896	-1.3313852	0.26597155	-0.13133093	-0.93308914	0.028486654	0.022095419	-0.97343798	0.42041739	-0.18775316	-0.85545148	0.45334644	0.10331129	-0.96247691	0.38745912	-0.06840516	-0.85186152	0.45970163	-0.025360933	-0.9599311	0.80043182	-0.22382828	-0.93565698	0.86361879	0.15377098	-0.89897653	0.91652469	-0.17042479	-0.87390065	0.94597491	0.070153788	-1.0868639	0.94751434	-0.034180261	-0.93638741	1.4117139	-0.18121396	-0.97476717	1.3924045	0.13819216	-1.0400651	1.4310015	-0.031927939	-1.0156946	1.0779258	-0.25682165	-1.0970295	1.0677781	0.1767104	-0.86763328	0.88437997	-0.21791527	-1.0279885	0.85709118	0.28018053
70	0.276	-1.283393	0.08005665	-0.13618868	-0.74118497	0.039464566	0.033384261	-1.277798	0.21592022	-0.17518049	-0.88115279	0.053036859	0.069814733	-1.2537485	0.21213389	-0.094757856	-0.86501002	0.080226049	-0.013249572	-1.3217322	0.26634971	-0.13013831	-0.93311196	0.028511986	0.022094718	-0.96246932	0.42179779	-0.18711705	-0.85405855	0.45331333	0.10374288	-0.95203946	0.38888979	-0.067560048	-0.85021939	0.45970973	-0.024953987	-0.95447607	0.80155102	-0.22326898	-0.93198607	0.86414658	0.1539708	-0.8939405	0.91782169	-0.17033826	-0.86930314	0.94670475	0.07089643	-1.0826374	0.94840989	-0.035005574	-0.93160824	1.4127673	-0.18081165	-0.96940916	1.393501	0.13866011	-1.0350869	1.4320649	-0.031335054	-1.0116562	1.079313	-0.25654208	-1.0907945	1.0684691	0.17875349	-0.8650421	0.88453688	-0.21883689	-1.0202927	0.85792253	0.28046409
71	0.28	-1.2692903	0.080945198	-0.13532105	-0.7412051	0.039465582	0.033399909	-1.2668281	0.21687221	-0.17388658	-0.88118845	0.053027359	0.069841997	-1.2425739	0.21341087	-0.093575556	-0.86498841	0.080281385	-0.0131975	-1.3120535	0.26642207	-0.12890274	-0.93314047	0.028536582	0.022092509	-0.95153184	0.42325573	-0.18650032	-0.85278992	0.45328008	0.10415081	-0.94159465	0.39041389	-0.066758945	-0.84874145	0.45967313	-0.024559007	-0.9491135	0.80268974	-0.22279761	-0.92802659	0.86475699	0.15430648	-0.88888092	0.91912932	-0.17021752	-0.86470279	0.94743154	0.071649011	-1.0780976	0.94928922	-0.035154501	-0.92686451	1.4138253	-0.18043508	-0.9641128	1.3945885	0.13913207	-1.0301389	1.4331164	-0.030773508	-1.0075881	1.0807063	-0.256209	-1.0847552	1.0692041	0.18034496	-0.86246028	0.88473736	-0.21976517	-1.0126602	0.85875824	0.28071094
72	0.284	-1.2547478	0.081723512	-0.13460342	-0.74125356	0.039472029	0.03342996	-1.2558007	0.217621	-0.17254601	-0.88123667	0.053013319	0.06985786	-1.2313178	0.21449716	-0.092371793	-0.864992	0.08034004	-0.013137709	-1.3023019	0.26619905	-0.12761951	-0.93317439	0.028562026	0.022090134	-0.94064626	0.42477202	-0.18589922	-0.85159471	0.4532581	0.10455263	-0.93107492	0.39201326	-0.065983639	-0.84736261	0.45959655	-0.024178024	-0.94387696	0.80384923	-0.22246534	-0.92389795	0.86541688	0.15472661	-0.8839127	0.92043228	-0.17005847	-0.86011861	0.94817379	0.072436117	-1.073342	0.95013686	-0.034874573	-0.92215397	1.4148856	-0.18007801	-0.95886043	1.3956832	0.13960926	-1.0252121	1.4341568	-0.030247211	-1.0034605	1.0821015	-0.25584569	-1.0786874	1.0699574	0.18179996	-0.85990792	0.88497645	-0.22069702	-1.0050713	0.85959814	0.28091335
73	0.288	-1.2398558	0.082415972	-0.13398089	-0.7413253	0.039483345	0.033480581	-1.2446739	0.21818316	-0.17119181	-0.88130221	0.052999393	0.069867928	-1.219969	0.21542166	-0.091121416	-0.86502379	0.080401051	-0.013071211	-1.2924423	0.2656814	-0.12628456	-0.93321098	0.028589025	0.02208508	-0.92984668	0.42633387	-0.18528495	-0.85041096	0.45325311	0.10496195	-0.92046294	0.39367682	-0.065217878	-0.84606669	0.45948411	-0.023811106	-0.93875878	0.80502656	-0.22226467	-0.91973525	0.86607484	0.15517081	-0.8791048	0.92172007	-0.16986441	-0.85558071	0.948947	0.073263965	-1.0684654	0.95091157	-0.034436445	-0.91748135	1.4159434	-0.17972745	-0.95364852	1.3967865	0.14008606	-1.0202966	1.4351871	-0.029750422	-0.99926939	1.0834846	-0.25547961	-1.0723256	1.0707146	0.18351185	-0.85741888	0.88524296	-0.2216471	-0.99743192	0.86044479	0.28107037
74	0.292	-1.2249052	0.082981266	-0.13322197	-0.74141496	0.039498246	0.03355425	-1.2333802	0.21858618	-0.16985244	-0.88138798	0.052994035	0.069874253	-1.2085266	0.21621726	-0.089834255	-0.86508081	0.080465024	-0.012997948	-1.2824589	0.26486973	-0.12490696	-0.93324131	0.028615801	0.02206223	-0.91915153	0.42793052	-0.184636	-0.84922367	0.4532645	0.1053801	-0.90982385	0.39540337	-0.064451351	-0.84487161	0.45934554	-0.023452333	-0.93373968	0.80622133	-0.22216844	-0.91560914	0.86670406	0.15561107	-0.87433729	0.92300044	-0.16961701	-0.85111281	0.94975398	0.074119601	-1.0635099	0.95158661	-0.033974115	-0.9128503	1.4169969	-0.17937283	-0.94848135	1.3978934	0.14055746	-1.0153867	1.4362092	-0.029268151	-0.99507977	1.0848442	-0.25514911	-1.0655742	1.071468	0.18563933	-0.85500581	0.88553019	-0.22262931	-0.98967925	0.86129869	0.28119188
75	0.296	-1.210127	0.083347603	-0.13214174	-0.74151749	0.039515845	0.033649044	-1.2219377	0.21882183	-0.16849348	-0.8814848	0.053002432	0.069875131	-1.1969157	0.21690565	-0.088558348	-0.86515651	0.080532582	-0.012917444	-1.2723393	0.26377941	-0.12351166	-0.93325031	0.02863844	0.021993414	-0.90855855	0.42954923	-0.18396611	-0.84807372	0.45328907	0.105795	-0.89922485	0.397188	-0.063682811	-0.84381108	0.45918746	-0.023096151	-0.92879114	0.80744817	-0.22213274	-0.91155064	0.86729735	0.15604362	-0.86938292	0.92429187	-0.16928448	-0.84671264	0.95058268	0.0749869	-1.0585177	0.95222052	-0.033535266	-0.90825665	1.4180424	-0.17901623	-0.94335987	1.3990019	0.14102375	-1.0104795	1.4372239	-0.028787198	-0.99097623	1.0861829	-0.25487596	-1.0586355	1.0722117	0.18796454	-0.85262554	0.88584023	-0.22363644	-0.98181781	0.8621567	0.28128423
76	0.3	-1.1954257	0.083501965	-0.13084354	-0.74162738	0.03953585	0.03375832	-1.2104541	0.21883338	-0.16704723	-0.88156581	0.053016975	0.069862369	-1.1850567	0.21745887	-0.087317046	-0.86524568	0.080602782	-0.012830701	-1.2620439	0.2624388	-0.12212578	-0.93322876	0.028654984	0.021861953	-0.89808204	0.43118279	-0.18330432	-0.84702078	0.45332399	0.10618318	-0.88867624	0.39901317	-0.062911714	-0.84287561	0.45901609	-0.022731186	-0.92385065	0.80873436	-0.22208726	-0.90756895	0.86784382	0.15646583	-0.864165	0.92561123	-0.16886174	-0.84236191	0.95141559	0.075863764	-1.0535406	0.95293129	-0.033140489	-0.90369297	1.4190755	-0.17866902	-0.9382717	1.4001119	0.14148206	-1.0055728	1.4382273	-0.028304605	-0.98697905	1.0875102	-0.25464128	-1.0518792	1.0729383	0.19004113	-0.85019881	0.88617747	-0.22464827	-0.97387908	0.86301717	0.28134599
77	0.304	-1.1805485	0.083498396	-0.12957651	-0.74173921	0.039557093	0.0338732	-1.1989326	0.21856525	-0.16551998	-0.88159789	0.053013195	0.069822425	-1.1729891	0.21779012	-0.086077768	-0.86534473	0.080674339	-0.012740212	-1.2515097	0.2608701	-0.12075182	-0.93319105	0.028669865	0.021701384	-0.88775685	0.43283466	-0.18265287	-0.84606526	0.45336875	0.10653593	-0.87815221	0.40085774	-0.06213028	-0.84197862	0.45884923	-0.022338446	-0.91882096	0.81009043	-0.22195099	-0.903653	0.86833589	0.1568737	-0.85887801	0.92696125	-0.16838376	-0.83804427	0.95224169	0.076754819	-1.0486014	0.95378255	-0.032788478	-0.89915167	1.4200913	-0.17833825	-0.93320656	1.4012199	0.14192675	-1.0006678	1.4392103	-0.02782197	-0.98305479	1.0888255	-0.25442036	-1.0455136	1.0736367	0.19159075	-0.84768058	0.88654221	-0.22565096	-0.96589009	0.86388021	0.28137349
